<mxfile host="app.diagrams.net" modified="2024-02-16T18:34:35.807Z" agent="Mozilla/5.0 (X11; Linux x86_64; rv:109.0) Gecko/20100101 Firefox/114.0" etag="ayXW9vrYR67HueBfyQWh" version="23.1.4" type="device">
  <diagram name="Página-1" id="Rganr19uKsDzd_jjGSZs">
    <mxGraphModel dx="1434" dy="789" grid="1" gridSize="10" guides="1" tooltips="1" connect="1" arrows="1" fold="1" page="1" pageScale="1" pageWidth="1169" pageHeight="827" background="#CCFFFF" math="0" shadow="0">
      <root>
        <mxCell id="0" />
        <mxCell id="1" parent="0" />
        <mxCell id="zkVgBiyXj-jMXiXHLofp-3" value="" style="rounded=0;whiteSpace=wrap;html=1;fillColor=none;" vertex="1" parent="1">
          <mxGeometry x="710" y="15" width="362.5" height="170" as="geometry" />
        </mxCell>
        <mxCell id="QX81qQhRw1458ZvsiOfz-3" style="edgeStyle=orthogonalEdgeStyle;rounded=0;orthogonalLoop=1;jettySize=auto;html=1;exitX=1;exitY=0.5;exitDx=0;exitDy=0;entryX=0;entryY=0.5;entryDx=0;entryDy=0;" parent="1" source="KhnNNgycjfnA8WjDQx8Y-1" target="QX81qQhRw1458ZvsiOfz-2" edge="1">
          <mxGeometry relative="1" as="geometry" />
        </mxCell>
        <mxCell id="KhnNNgycjfnA8WjDQx8Y-1" value="Recepción de un pedido" style="rounded=1;whiteSpace=wrap;html=1;" parent="1" vertex="1">
          <mxGeometry x="180" y="70" width="120" height="60" as="geometry" />
        </mxCell>
        <mxCell id="QX81qQhRw1458ZvsiOfz-1" style="edgeStyle=orthogonalEdgeStyle;rounded=0;orthogonalLoop=1;jettySize=auto;html=1;exitX=1;exitY=0.5;exitDx=0;exitDy=0;" parent="1" source="KhnNNgycjfnA8WjDQx8Y-6" target="KhnNNgycjfnA8WjDQx8Y-1" edge="1">
          <mxGeometry relative="1" as="geometry" />
        </mxCell>
        <mxCell id="KhnNNgycjfnA8WjDQx8Y-6" value="" style="ellipse;whiteSpace=wrap;html=1;aspect=fixed;fillColor=#FFFFFF;fillStyle=auto;gradientColor=#000000;gradientDirection=radial;" parent="1" vertex="1">
          <mxGeometry x="40" y="80" width="40" height="40" as="geometry" />
        </mxCell>
        <mxCell id="KhnNNgycjfnA8WjDQx8Y-18" value="" style="ellipse;shape=doubleEllipse;whiteSpace=wrap;html=1;aspect=fixed;gradientColor=#FFFFFF;gradientDirection=radial;fillColor=#000000;" parent="1" vertex="1">
          <mxGeometry x="1080" y="760" width="40" height="40" as="geometry" />
        </mxCell>
        <mxCell id="QX81qQhRw1458ZvsiOfz-5" style="edgeStyle=orthogonalEdgeStyle;rounded=0;orthogonalLoop=1;jettySize=auto;html=1;exitX=1;exitY=0.5;exitDx=0;exitDy=0;entryX=0;entryY=0.5;entryDx=0;entryDy=0;" parent="1" source="QX81qQhRw1458ZvsiOfz-2" target="zkVgBiyXj-jMXiXHLofp-3" edge="1">
          <mxGeometry relative="1" as="geometry">
            <mxPoint x="590" y="100" as="targetPoint" />
          </mxGeometry>
        </mxCell>
        <mxCell id="QX81qQhRw1458ZvsiOfz-2" value="¿Hay articulo en existencia?" style="rhombus;whiteSpace=wrap;html=1;" parent="1" vertex="1">
          <mxGeometry x="400" y="60" width="80" height="80" as="geometry" />
        </mxCell>
        <mxCell id="QX81qQhRw1458ZvsiOfz-17" style="edgeStyle=orthogonalEdgeStyle;rounded=0;orthogonalLoop=1;jettySize=auto;html=1;entryX=0;entryY=0.5;entryDx=0;entryDy=0;" parent="1" source="zkVgBiyXj-jMXiXHLofp-1" target="QX81qQhRw1458ZvsiOfz-16" edge="1">
          <mxGeometry relative="1" as="geometry">
            <mxPoint x="922.5" y="100" as="sourcePoint" />
          </mxGeometry>
        </mxCell>
        <mxCell id="QX81qQhRw1458ZvsiOfz-12" style="edgeStyle=orthogonalEdgeStyle;rounded=0;orthogonalLoop=1;jettySize=auto;html=1;exitX=0.5;exitY=1;exitDx=0;exitDy=0;" parent="1" source="QX81qQhRw1458ZvsiOfz-6" target="QX81qQhRw1458ZvsiOfz-11" edge="1">
          <mxGeometry relative="1" as="geometry" />
        </mxCell>
        <mxCell id="QX81qQhRw1458ZvsiOfz-13" style="edgeStyle=orthogonalEdgeStyle;rounded=0;orthogonalLoop=1;jettySize=auto;html=1;exitX=1;exitY=0.5;exitDx=0;exitDy=0;" parent="1" source="QX81qQhRw1458ZvsiOfz-6" target="QX81qQhRw1458ZvsiOfz-10" edge="1">
          <mxGeometry relative="1" as="geometry" />
        </mxCell>
        <mxCell id="QX81qQhRw1458ZvsiOfz-6" value="&lt;div&gt;Asignar &lt;br&gt;&lt;/div&gt;&lt;div&gt;mercancía al pedido&lt;/div&gt;" style="rounded=1;whiteSpace=wrap;html=1;" parent="1" vertex="1">
          <mxGeometry x="500" y="310" width="120" height="60" as="geometry" />
        </mxCell>
        <mxCell id="QX81qQhRw1458ZvsiOfz-8" value="No" style="text;html=1;strokeColor=none;fillColor=none;align=center;verticalAlign=middle;whiteSpace=wrap;rounded=0;" parent="1" vertex="1">
          <mxGeometry x="510" y="70" width="60" height="30" as="geometry" />
        </mxCell>
        <mxCell id="QX81qQhRw1458ZvsiOfz-9" value="Si" style="text;html=1;align=center;verticalAlign=middle;resizable=0;points=[];autosize=1;strokeColor=none;fillColor=none;" parent="1" vertex="1">
          <mxGeometry x="440" y="140" width="30" height="30" as="geometry" />
        </mxCell>
        <mxCell id="QX81qQhRw1458ZvsiOfz-15" style="edgeStyle=orthogonalEdgeStyle;rounded=0;orthogonalLoop=1;jettySize=auto;html=1;exitX=1;exitY=0.5;exitDx=0;exitDy=0;entryX=0;entryY=0.5;entryDx=0;entryDy=0;" parent="1" source="QX81qQhRw1458ZvsiOfz-10" target="QX81qQhRw1458ZvsiOfz-14" edge="1">
          <mxGeometry relative="1" as="geometry" />
        </mxCell>
        <mxCell id="QX81qQhRw1458ZvsiOfz-10" value="Descontar articulo de exixtencias" style="rounded=1;whiteSpace=wrap;html=1;" parent="1" vertex="1">
          <mxGeometry x="720" y="310" width="120" height="60" as="geometry" />
        </mxCell>
        <mxCell id="QX81qQhRw1458ZvsiOfz-43" style="edgeStyle=orthogonalEdgeStyle;rounded=0;orthogonalLoop=1;jettySize=auto;html=1;exitX=0.5;exitY=1;exitDx=0;exitDy=0;entryX=0.75;entryY=0;entryDx=0;entryDy=0;" parent="1" source="QX81qQhRw1458ZvsiOfz-11" target="QX81qQhRw1458ZvsiOfz-41" edge="1">
          <mxGeometry relative="1" as="geometry">
            <Array as="points">
              <mxPoint x="560" y="600" />
              <mxPoint x="480" y="600" />
            </Array>
          </mxGeometry>
        </mxCell>
        <mxCell id="QX81qQhRw1458ZvsiOfz-46" style="edgeStyle=orthogonalEdgeStyle;rounded=0;orthogonalLoop=1;jettySize=auto;html=1;exitX=0;exitY=0.5;exitDx=0;exitDy=0;entryX=0;entryY=0.5;entryDx=0;entryDy=0;" parent="1" source="QX81qQhRw1458ZvsiOfz-11" target="QX81qQhRw1458ZvsiOfz-6" edge="1">
          <mxGeometry relative="1" as="geometry" />
        </mxCell>
        <mxCell id="QX81qQhRw1458ZvsiOfz-11" value="¿Se han asignado todos los artículos al pedido?" style="rhombus;whiteSpace=wrap;html=1;" parent="1" vertex="1">
          <mxGeometry x="520" y="470" width="80" height="80" as="geometry" />
        </mxCell>
        <mxCell id="QX81qQhRw1458ZvsiOfz-24" style="edgeStyle=orthogonalEdgeStyle;rounded=0;orthogonalLoop=1;jettySize=auto;html=1;exitX=0.5;exitY=1;exitDx=0;exitDy=0;entryX=1;entryY=0.5;entryDx=0;entryDy=0;" parent="1" source="QX81qQhRw1458ZvsiOfz-14" target="QX81qQhRw1458ZvsiOfz-23" edge="1">
          <mxGeometry relative="1" as="geometry" />
        </mxCell>
        <mxCell id="QX81qQhRw1458ZvsiOfz-26" style="edgeStyle=orthogonalEdgeStyle;rounded=0;orthogonalLoop=1;jettySize=auto;html=1;exitX=1;exitY=0.5;exitDx=0;exitDy=0;entryX=0.5;entryY=0;entryDx=0;entryDy=0;" parent="1" source="QX81qQhRw1458ZvsiOfz-14" target="KhnNNgycjfnA8WjDQx8Y-18" edge="1">
          <mxGeometry relative="1" as="geometry">
            <mxPoint x="1100" y="750" as="targetPoint" />
          </mxGeometry>
        </mxCell>
        <mxCell id="QX81qQhRw1458ZvsiOfz-14" value="¿Mercancía por debajo del nivel de reposición?" style="rhombus;whiteSpace=wrap;html=1;" parent="1" vertex="1">
          <mxGeometry x="940" y="300" width="80" height="80" as="geometry" />
        </mxCell>
        <mxCell id="QX81qQhRw1458ZvsiOfz-21" style="edgeStyle=orthogonalEdgeStyle;rounded=0;orthogonalLoop=1;jettySize=auto;html=1;exitX=0.5;exitY=0;exitDx=0;exitDy=0;entryX=0.5;entryY=0;entryDx=0;entryDy=0;" parent="1" source="QX81qQhRw1458ZvsiOfz-16" target="zkVgBiyXj-jMXiXHLofp-1" edge="1">
          <mxGeometry relative="1" as="geometry">
            <mxPoint x="862.5" y="70" as="targetPoint" />
          </mxGeometry>
        </mxCell>
        <mxCell id="zkVgBiyXj-jMXiXHLofp-11" style="edgeStyle=orthogonalEdgeStyle;rounded=0;orthogonalLoop=1;jettySize=auto;html=1;exitX=1;exitY=0.5;exitDx=0;exitDy=0;entryX=0;entryY=0.5;entryDx=0;entryDy=0;" edge="1" parent="1" source="QX81qQhRw1458ZvsiOfz-16" target="zkVgBiyXj-jMXiXHLofp-10">
          <mxGeometry relative="1" as="geometry" />
        </mxCell>
        <mxCell id="QX81qQhRw1458ZvsiOfz-16" value="¿Se han recibido nuevas existencias?" style="rhombus;whiteSpace=wrap;html=1;" parent="1" vertex="1">
          <mxGeometry x="860" y="60" width="80" height="80" as="geometry" />
        </mxCell>
        <mxCell id="QX81qQhRw1458ZvsiOfz-23" value="Reponer existencias" style="rounded=1;whiteSpace=wrap;html=1;" parent="1" vertex="1">
          <mxGeometry x="720" y="410" width="120" height="60" as="geometry" />
        </mxCell>
        <mxCell id="QX81qQhRw1458ZvsiOfz-25" value="Si" style="text;html=1;align=center;verticalAlign=middle;resizable=0;points=[];autosize=1;strokeColor=none;fillColor=none;" parent="1" vertex="1">
          <mxGeometry x="885" y="410" width="30" height="30" as="geometry" />
        </mxCell>
        <mxCell id="QX81qQhRw1458ZvsiOfz-27" value="No" style="text;html=1;strokeColor=none;fillColor=none;align=center;verticalAlign=middle;whiteSpace=wrap;rounded=0;" parent="1" vertex="1">
          <mxGeometry x="1030" y="310" width="60" height="30" as="geometry" />
        </mxCell>
        <mxCell id="QX81qQhRw1458ZvsiOfz-31" style="edgeStyle=orthogonalEdgeStyle;rounded=0;orthogonalLoop=1;jettySize=auto;html=1;exitX=0.75;exitY=1;exitDx=0;exitDy=0;entryX=0.25;entryY=0;entryDx=0;entryDy=0;" parent="1" source="QX81qQhRw1458ZvsiOfz-28" target="QX81qQhRw1458ZvsiOfz-6" edge="1">
          <mxGeometry relative="1" as="geometry" />
        </mxCell>
        <mxCell id="QX81qQhRw1458ZvsiOfz-33" style="edgeStyle=orthogonalEdgeStyle;rounded=0;orthogonalLoop=1;jettySize=auto;html=1;exitX=0.25;exitY=1;exitDx=0;exitDy=0;" parent="1" source="QX81qQhRw1458ZvsiOfz-28" target="QX81qQhRw1458ZvsiOfz-32" edge="1">
          <mxGeometry relative="1" as="geometry" />
        </mxCell>
        <mxCell id="QX81qQhRw1458ZvsiOfz-28" value="" style="rounded=1;whiteSpace=wrap;html=1;fillColor=#000000;" parent="1" vertex="1">
          <mxGeometry x="360" y="230" width="160" height="20" as="geometry" />
        </mxCell>
        <mxCell id="QX81qQhRw1458ZvsiOfz-30" style="edgeStyle=orthogonalEdgeStyle;rounded=0;orthogonalLoop=1;jettySize=auto;html=1;exitX=0.5;exitY=1;exitDx=0;exitDy=0;entryX=0.5;entryY=0;entryDx=0;entryDy=0;" parent="1" source="QX81qQhRw1458ZvsiOfz-2" target="QX81qQhRw1458ZvsiOfz-28" edge="1">
          <mxGeometry relative="1" as="geometry" />
        </mxCell>
        <mxCell id="QX81qQhRw1458ZvsiOfz-32" value="Revisar pago" style="rounded=1;whiteSpace=wrap;html=1;" parent="1" vertex="1">
          <mxGeometry x="280" y="310" width="120" height="60" as="geometry" />
        </mxCell>
        <mxCell id="QX81qQhRw1458ZvsiOfz-38" style="edgeStyle=orthogonalEdgeStyle;rounded=0;orthogonalLoop=1;jettySize=auto;html=1;exitX=0;exitY=0.5;exitDx=0;exitDy=0;entryX=1;entryY=0.5;entryDx=0;entryDy=0;" parent="1" source="QX81qQhRw1458ZvsiOfz-34" target="QX81qQhRw1458ZvsiOfz-37" edge="1">
          <mxGeometry relative="1" as="geometry" />
        </mxCell>
        <mxCell id="QX81qQhRw1458ZvsiOfz-42" style="edgeStyle=orthogonalEdgeStyle;rounded=0;orthogonalLoop=1;jettySize=auto;html=1;exitX=0.5;exitY=1;exitDx=0;exitDy=0;entryX=0.25;entryY=0;entryDx=0;entryDy=0;" parent="1" source="QX81qQhRw1458ZvsiOfz-34" target="QX81qQhRw1458ZvsiOfz-41" edge="1">
          <mxGeometry relative="1" as="geometry">
            <Array as="points">
              <mxPoint x="340" y="600" />
              <mxPoint x="400" y="600" />
            </Array>
          </mxGeometry>
        </mxCell>
        <mxCell id="QX81qQhRw1458ZvsiOfz-34" value="¿El pago es correcto?" style="rhombus;whiteSpace=wrap;html=1;" parent="1" vertex="1">
          <mxGeometry x="300" y="470" width="80" height="80" as="geometry" />
        </mxCell>
        <mxCell id="QX81qQhRw1458ZvsiOfz-36" style="edgeStyle=orthogonalEdgeStyle;rounded=0;orthogonalLoop=1;jettySize=auto;html=1;exitX=0.5;exitY=1;exitDx=0;exitDy=0;entryX=0.5;entryY=0;entryDx=0;entryDy=0;" parent="1" source="QX81qQhRw1458ZvsiOfz-32" target="QX81qQhRw1458ZvsiOfz-34" edge="1">
          <mxGeometry relative="1" as="geometry">
            <mxPoint x="350" y="450" as="targetPoint" />
          </mxGeometry>
        </mxCell>
        <mxCell id="QX81qQhRw1458ZvsiOfz-40" style="edgeStyle=orthogonalEdgeStyle;rounded=0;orthogonalLoop=1;jettySize=auto;html=1;exitX=0.5;exitY=1;exitDx=0;exitDy=0;entryX=0;entryY=0.5;entryDx=0;entryDy=0;" parent="1" source="QX81qQhRw1458ZvsiOfz-37" target="KhnNNgycjfnA8WjDQx8Y-18" edge="1">
          <mxGeometry relative="1" as="geometry" />
        </mxCell>
        <mxCell id="QX81qQhRw1458ZvsiOfz-37" value="Cancelar pedido" style="rounded=1;whiteSpace=wrap;html=1;" parent="1" vertex="1">
          <mxGeometry x="80" y="480" width="120" height="60" as="geometry" />
        </mxCell>
        <mxCell id="QX81qQhRw1458ZvsiOfz-39" value="No" style="text;html=1;strokeColor=none;fillColor=none;align=center;verticalAlign=middle;whiteSpace=wrap;rounded=0;" parent="1" vertex="1">
          <mxGeometry x="240" y="480" width="60" height="30" as="geometry" />
        </mxCell>
        <mxCell id="QX81qQhRw1458ZvsiOfz-49" style="edgeStyle=orthogonalEdgeStyle;rounded=0;orthogonalLoop=1;jettySize=auto;html=1;exitX=0.5;exitY=1;exitDx=0;exitDy=0;entryX=0;entryY=0.5;entryDx=0;entryDy=0;" parent="1" source="QX81qQhRw1458ZvsiOfz-41" target="QX81qQhRw1458ZvsiOfz-48" edge="1">
          <mxGeometry relative="1" as="geometry" />
        </mxCell>
        <mxCell id="QX81qQhRw1458ZvsiOfz-41" value="" style="rounded=1;whiteSpace=wrap;html=1;fillColor=#000000;" parent="1" vertex="1">
          <mxGeometry x="360" y="640" width="160" height="20" as="geometry" />
        </mxCell>
        <mxCell id="QX81qQhRw1458ZvsiOfz-44" value="Si" style="text;html=1;align=center;verticalAlign=middle;resizable=0;points=[];autosize=1;strokeColor=none;fillColor=none;" parent="1" vertex="1">
          <mxGeometry x="555" y="550" width="30" height="30" as="geometry" />
        </mxCell>
        <mxCell id="QX81qQhRw1458ZvsiOfz-45" value="Si" style="text;html=1;align=center;verticalAlign=middle;resizable=0;points=[];autosize=1;strokeColor=none;fillColor=none;" parent="1" vertex="1">
          <mxGeometry x="340" y="550" width="30" height="30" as="geometry" />
        </mxCell>
        <mxCell id="QX81qQhRw1458ZvsiOfz-47" value="No" style="text;html=1;strokeColor=none;fillColor=none;align=center;verticalAlign=middle;whiteSpace=wrap;rounded=0;" parent="1" vertex="1">
          <mxGeometry x="470" y="480" width="60" height="30" as="geometry" />
        </mxCell>
        <mxCell id="QX81qQhRw1458ZvsiOfz-51" style="edgeStyle=orthogonalEdgeStyle;rounded=0;orthogonalLoop=1;jettySize=auto;html=1;exitX=1;exitY=0.5;exitDx=0;exitDy=0;entryX=0;entryY=0.5;entryDx=0;entryDy=0;" parent="1" source="QX81qQhRw1458ZvsiOfz-48" target="QX81qQhRw1458ZvsiOfz-50" edge="1">
          <mxGeometry relative="1" as="geometry" />
        </mxCell>
        <mxCell id="QX81qQhRw1458ZvsiOfz-48" value="&lt;div&gt;Despachar pedido a cliente&lt;/div&gt;" style="rounded=1;whiteSpace=wrap;html=1;" parent="1" vertex="1">
          <mxGeometry x="530" y="680" width="120" height="60" as="geometry" />
        </mxCell>
        <mxCell id="QX81qQhRw1458ZvsiOfz-53" style="edgeStyle=orthogonalEdgeStyle;rounded=0;orthogonalLoop=1;jettySize=auto;html=1;exitX=1;exitY=0.5;exitDx=0;exitDy=0;entryX=0;entryY=0;entryDx=0;entryDy=0;" parent="1" source="QX81qQhRw1458ZvsiOfz-50" target="KhnNNgycjfnA8WjDQx8Y-18" edge="1">
          <mxGeometry relative="1" as="geometry" />
        </mxCell>
        <mxCell id="QX81qQhRw1458ZvsiOfz-50" value="" style="shape=collate;whiteSpace=wrap;html=1;" parent="1" vertex="1">
          <mxGeometry x="762.5" y="690" width="35" height="40" as="geometry" />
        </mxCell>
        <mxCell id="QX81qQhRw1458ZvsiOfz-52" value="&lt;div&gt;Confirmación&lt;/div&gt;&lt;div&gt;cliente&lt;/div&gt;" style="text;html=1;align=center;verticalAlign=middle;resizable=0;points=[];autosize=1;strokeColor=none;fillColor=none;" parent="1" vertex="1">
          <mxGeometry x="735" y="650" width="90" height="40" as="geometry" />
        </mxCell>
        <mxCell id="zkVgBiyXj-jMXiXHLofp-1" value="" style="shape=collate;whiteSpace=wrap;html=1;" vertex="1" parent="1">
          <mxGeometry x="770" y="80" width="35" height="40" as="geometry" />
        </mxCell>
        <mxCell id="zkVgBiyXj-jMXiXHLofp-2" value="&lt;div&gt;Esperar hasta &lt;br&gt;&lt;/div&gt;&lt;div&gt;reposición &lt;br&gt;&lt;/div&gt;&lt;div&gt;existencias&lt;/div&gt;" style="text;html=1;align=center;verticalAlign=middle;resizable=0;points=[];autosize=1;strokeColor=none;fillColor=none;" vertex="1" parent="1">
          <mxGeometry x="740" y="120" width="100" height="60" as="geometry" />
        </mxCell>
        <mxCell id="zkVgBiyXj-jMXiXHLofp-4" style="edgeStyle=orthogonalEdgeStyle;rounded=0;orthogonalLoop=1;jettySize=auto;html=1;exitX=0.5;exitY=1;exitDx=0;exitDy=0;entryX=0.75;entryY=0;entryDx=0;entryDy=0;" edge="1" parent="1" source="zkVgBiyXj-jMXiXHLofp-3" target="QX81qQhRw1458ZvsiOfz-6">
          <mxGeometry relative="1" as="geometry" />
        </mxCell>
        <mxCell id="zkVgBiyXj-jMXiXHLofp-7" value="Repetir hasta completar pedido" style="rounded=0;whiteSpace=wrap;html=1;fillColor=default;" vertex="1" parent="1">
          <mxGeometry x="900" y="165" width="172.5" height="20" as="geometry" />
        </mxCell>
        <mxCell id="zkVgBiyXj-jMXiXHLofp-9" value="No" style="text;html=1;strokeColor=none;fillColor=none;align=center;verticalAlign=middle;whiteSpace=wrap;rounded=0;" vertex="1" parent="1">
          <mxGeometry x="890" y="30" width="60" height="30" as="geometry" />
        </mxCell>
        <mxCell id="zkVgBiyXj-jMXiXHLofp-10" value="" style="ellipse;shape=doubleEllipse;whiteSpace=wrap;html=1;aspect=fixed;gradientColor=#FFFFFF;gradientDirection=radial;fillColor=#000000;" vertex="1" parent="1">
          <mxGeometry x="1000" y="80" width="40" height="40" as="geometry" />
        </mxCell>
        <mxCell id="zkVgBiyXj-jMXiXHLofp-12" value="Si" style="text;html=1;align=center;verticalAlign=middle;resizable=0;points=[];autosize=1;strokeColor=none;fillColor=none;" vertex="1" parent="1">
          <mxGeometry x="940" y="80" width="30" height="30" as="geometry" />
        </mxCell>
      </root>
    </mxGraphModel>
  </diagram>
</mxfile>
